<svg width="54" height="54" viewBox="0 0 54 54" fill="none" xmlns="http://www.w3.org/2000/svg">
<circle cx="27" cy="27" r="27" fill="#125BCC" fill-opacity="0.24"/>
<path d="M23.9531 31.0156C23.9531 29.5573 24.1302 28.3958 24.4844 27.5312C24.8385 26.6667 25.4844 25.8177 26.4219 24.9844C27.3698 24.1406 28 23.4583 28.3125 22.9375C28.625 22.4062 28.7812 21.849 28.7812 21.2656C28.7812 19.5052 27.9688 18.625 26.3438 18.625C25.5729 18.625 24.9531 18.8646 24.4844 19.3438C24.026 19.8125 23.7865 20.4635 23.7656 21.2969H19.2344C19.2552 19.3073 19.8958 17.75 21.1562 16.625C22.4271 15.5 24.1562 14.9375 26.3438 14.9375C28.5521 14.9375 30.2656 15.474 31.4844 16.5469C32.7031 17.6094 33.3125 19.1146 33.3125 21.0625C33.3125 21.9479 33.1146 22.7865 32.7188 23.5781C32.3229 24.3594 31.6302 25.2292 30.6406 26.1875L29.375 27.3906C28.5833 28.151 28.1302 29.0417 28.0156 30.0625L27.9531 31.0156H23.9531ZM23.5 35.8125C23.5 35.1146 23.7344 34.5417 24.2031 34.0938C24.6823 33.6354 25.2917 33.4062 26.0312 33.4062C26.7708 33.4062 27.375 33.6354 27.8438 34.0938C28.3229 34.5417 28.5625 35.1146 28.5625 35.8125C28.5625 36.5 28.3281 37.0677 27.8594 37.5156C27.401 37.9635 26.7917 38.1875 26.0312 38.1875C25.2708 38.1875 24.6562 37.9635 24.1875 37.5156C23.7292 37.0677 23.5 36.5 23.5 35.8125Z" fill="white"/>
</svg>
