<svg width="56" height="56" viewBox="0 0 56 56" fill="none" xmlns="http://www.w3.org/2000/svg">
<path d="M28 49C39.598 49 49 39.598 49 28C49 16.402 39.598 7 28 7C16.402 7 7 16.402 7 28C7 39.598 16.402 49 28 49Z" stroke="black" strokeWidth="2" strokeLinecap="round" strokeLinejoin="round"/>
<path d="M20.125 26.25C21.5747 26.25 22.75 25.0747 22.75 23.625C22.75 22.1753 21.5747 21 20.125 21C18.6753 21 17.5 22.1753 17.5 23.625C17.5 25.0747 18.6753 26.25 20.125 26.25Z" fill="black"/>
<path d="M35.875 26.25C37.3247 26.25 38.5 25.0747 38.5 23.625C38.5 22.1753 37.3247 21 35.875 21C34.4253 21 33.25 22.1753 33.25 23.625C33.25 25.0747 34.4253 26.25 35.875 26.25Z" fill="black"/>
<path d="M37.0956 33.2492C36.1736 34.8456 34.8477 36.1712 33.2511 37.0929C31.6546 38.0145 29.8435 38.4997 28 38.4998C26.1565 38.4998 24.3455 38.0146 22.7489 37.0929C21.1523 36.1713 19.8264 34.8457 18.9044 33.2493" stroke="black" strokeWidth="2" strokeLinecap="round" strokeLinejoin="round"/>
</svg>
