<svg width="45" height="41" viewBox="0 0 45 41" fill="none" xmlns="http://www.w3.org/2000/svg">
<path d="M41.4062 8.46875H3.59375C2.64451 8.46875 1.875 9.23826 1.875 10.1875V37.6875C1.875 38.6367 2.64451 39.4062 3.59375 39.4062H41.4062C42.3555 39.4062 43.125 38.6367 43.125 37.6875V10.1875C43.125 9.23826 42.3555 8.46875 41.4062 8.46875Z" stroke="white" stroke-width="3" stroke-linecap="round" stroke-linejoin="round"/>
<path d="M31.0938 39.4062V5.03125C31.0938 4.11957 30.7316 3.24523 30.0869 2.60057C29.4423 1.95591 28.5679 1.59375 27.6562 1.59375H17.3438C16.4321 1.59375 15.5577 1.95591 14.9131 2.60057C14.2684 3.24523 13.9062 4.11957 13.9062 5.03125V39.4062" stroke="white" stroke-width="3" stroke-linecap="round" stroke-linejoin="round"/>
</svg>
