<svg width="55" height="55" viewBox="0 0 55 55" fill="none" xmlns="http://www.w3.org/2000/svg">
<path d="M46.4062 15.4688H8.59375C7.64451 15.4688 6.875 16.2383 6.875 17.1875V44.6875C6.875 45.6367 7.64451 46.4062 8.59375 46.4062H46.4062C47.3555 46.4062 48.125 45.6367 48.125 44.6875V17.1875C48.125 16.2383 47.3555 15.4688 46.4062 15.4688Z" stroke="#9F9F9F" stroke-width="3" stroke-linecap="round" stroke-linejoin="round"/>
<path d="M36.0938 46.4062V12.0312C36.0938 11.1196 35.7316 10.2452 35.0869 9.60057C34.4423 8.95591 33.5679 8.59375 32.6562 8.59375H22.3438C21.4321 8.59375 20.5577 8.95591 19.9131 9.60057C19.2684 10.2452 18.9062 11.1196 18.9062 12.0312V46.4062" stroke="#9F9F9F" stroke-width="3" stroke-linecap="round" stroke-linejoin="round"/>
</svg>
